<svg width="209" height="16" viewBox="0 0 209 16" fill="none" xmlns="http://www.w3.org/2000/svg">
<path d="M206.704 9.3945C206.704 10.8298 206.133 12.0856 204.811 12.0856C203.488 12.0856 202.9 10.8298 202.9 9.3945C202.9 7.95923 203.488 6.68705 204.811 6.68705C206.133 6.68705 206.704 7.94292 206.704 9.3945M200.729 13.4393H202.868V12.3792H202.9C203.374 13.2599 204.37 13.6677 205.562 13.6677C207.194 13.6677 208.941 12.3629 208.941 9.37819C208.941 6.39348 207.194 5.08869 205.562 5.08869C204.566 5.08869 203.57 5.51274 202.998 6.36086H202.966V2.21814H200.729V13.4393V13.4393ZM195.178 5.31702V5.69215C195.945 5.75739 196.06 6.06728 196.06 7.07849V11.4169C195.619 12.053 195.227 12.5097 194.656 12.5097C193.97 12.5097 193.905 11.841 193.905 10.9439V5.31702H190.59V5.69215C191.423 5.7737 191.456 6.13252 191.456 7.07849V10.3078C191.456 11.2375 191.537 11.9062 191.652 12.2813C191.88 13.0153 192.664 13.684 193.578 13.684C194.623 13.684 195.325 13.2273 196.06 12.3629V13.4393H199.374V13.0805C198.59 13.0153 198.492 12.6891 198.492 11.6779V5.31702H195.178V5.31702ZM186.933 13.4393H189.235V2.21814H186.933V13.4393V13.4393ZM180.533 13.7166C182.395 13.7166 183.848 13.0968 185.105 11.7431V10.7319C183.929 12.1019 182.689 12.8848 181.105 12.8848C178.215 12.8848 177.252 10.4709 177.252 7.38838C177.252 4.56677 178.558 2.16922 181.17 2.16922C183.015 2.16922 184.484 3.40877 184.925 5.46381H185.301V1.38634H184.909C184.827 1.79409 184.697 2.20183 184.256 2.20183C184.027 2.20183 183.733 2.10398 183.195 1.90826C182.264 1.58206 181.399 1.38634 180.566 1.38634C177.007 1.38634 174.117 4.27319 174.117 7.76351C174.117 11.2538 176.795 13.7166 180.533 13.7166M165.033 0V0.570846C167.27 1.77778 167.71 4.76249 167.71 7.99184C167.71 11.5637 167.286 14.0265 165.033 15.4618V16C168.135 14.9725 170.159 11.6126 170.159 8.05709C170.159 4.50153 168.184 1.04383 165.033 0M161.359 11.4495C160.902 12.2487 160.429 12.6402 159.923 12.6402C158.731 12.6402 158.519 10.7645 158.519 9.13354C158.519 7.50255 158.747 5.9368 159.792 5.9368C160.413 5.9368 160.968 6.36086 161.359 7.19266V11.4495V11.4495ZM160.184 1.6473V2.07136C161.278 2.07136 161.359 2.41386 161.359 3.6371V6.08359C160.788 5.46381 160.217 5.07238 159.351 5.07238C157.245 5.07238 155.972 7.11111 155.972 9.52497C155.972 11.7431 157.098 13.684 159.172 13.684C160.086 13.684 160.674 13.2599 161.359 12.3955V13.684L164.804 13.0153V12.6891C163.841 12.5912 163.792 12.265 163.792 11.0092V1.6473H160.184V1.6473ZM150.029 13.4393H152.266V9.78593C152.266 8.35066 152.837 7.17635 154.47 7.17635C154.731 7.17635 155.074 7.20897 155.27 7.2579V5.17023C155.139 5.1213 154.943 5.08869 154.78 5.08869C153.702 5.08869 152.592 5.80632 152.184 6.81753H152.151V5.31702H150.029V13.4393V13.4393ZM144.315 12.1998C143.776 12.1998 143.433 11.7757 143.433 11.2538C143.433 10.9439 143.531 10.6177 143.776 10.3078C144.135 9.86748 144.641 9.37819 145.343 8.98675V11.7105C144.952 12.0204 144.641 12.1998 144.315 12.1998M145.343 12.3466C145.441 13.2273 145.996 13.6514 146.894 13.6514C147.727 13.6514 148.347 13.1947 148.903 12.4118L148.609 12.1509C148.445 12.4118 148.282 12.5423 148.135 12.5423C147.743 12.5423 147.76 12.0693 147.76 11.5637V8.26911C147.76 7.45362 147.727 6.88277 147.645 6.63812C147.515 6.24669 147.221 5.90418 146.764 5.57798C146.323 5.25178 145.703 5.08869 144.935 5.08869C143.743 5.08869 142.421 5.4475 141.703 6.263C141.376 6.63812 141.213 7.04587 141.213 7.46993C141.213 7.76351 141.327 8.00815 141.572 8.23649C141.833 8.44852 142.127 8.56269 142.503 8.56269C142.845 8.56269 143.123 8.46483 143.335 8.26911C143.548 8.07339 143.645 7.82875 143.645 7.53517C143.645 7.30683 143.531 7.06218 143.319 6.81753C143.156 6.63812 143.074 6.49134 143.074 6.36086C143.074 6.23038 143.156 6.0999 143.303 6.00204C143.548 5.83894 143.858 5.74108 144.233 5.74108C144.658 5.74108 145.082 5.96942 145.229 6.34455C145.294 6.50765 145.343 6.89908 145.343 7.50255V8.39959C142.96 9.50866 141.05 10.4057 141.05 12.053C141.05 12.999 141.752 13.6514 142.666 13.6514C143.45 13.6514 144.347 13.211 145.343 12.3466M133.801 9.42712C133.801 8.10601 134.258 6.62181 135.776 6.62181C137.295 6.62181 137.752 8.10601 137.752 9.42712C137.752 10.7482 137.295 12.2161 135.776 12.2161C134.258 12.2161 133.801 10.7319 133.801 9.42712ZM131.564 9.42712C131.564 12.0204 133.229 13.7329 135.776 13.7329C138.323 13.7329 139.988 12.0204 139.988 9.42712C139.988 6.83384 138.339 5.08869 135.776 5.08869C133.213 5.08869 131.564 6.81753 131.564 9.42712M126.389 6.06728C127.531 6.06728 127.76 7.45362 127.76 9.13354C127.76 11.4169 127.613 13.0805 126.258 13.0805C125.572 13.0805 125.099 12.5912 125.001 11.9388C124.968 11.7268 124.952 11.2538 124.952 10.5199V6.89908C125.409 6.34455 125.882 6.06728 126.389 6.06728M121.605 1.6473V2.02243C122.405 2.07136 122.536 2.316 122.536 3.34353V13.684H122.829L124.185 12.8033C124.854 13.423 125.474 13.684 126.389 13.684C128.821 13.684 130.34 11.6126 130.34 9.05199C130.34 6.86646 129.148 5.07238 127.189 5.07238C126.389 5.07238 125.638 5.43119 124.952 6.13252V1.6473H121.605V1.6473ZM116.789 13.4393H119.025V6.78491H120.674V5.31702H119.025V4.24057C119.025 3.52294 119.352 3.2946 120.005 3.2946C120.283 3.2946 120.511 3.31091 120.772 3.34353V1.67992C120.495 1.63099 120.054 1.58206 119.613 1.58206C117.687 1.58206 116.789 2.69113 116.789 4.19164V5.31702H115.434V6.78491H116.789V13.4393V13.4393ZM107.695 5.31702V5.69215C108.152 5.70846 108.413 5.82263 108.528 6.14883C108.577 6.27931 108.593 6.57288 108.593 7.02956V11.5311C108.593 12.6075 108.577 12.999 107.695 13.0805V13.4393H112.087V13.0805C111.205 13.0316 111.026 12.8196 111.026 12.0204V9.65545C111.026 8.98675 111.075 8.38328 111.303 7.81244C111.483 7.35576 111.842 6.81753 112.266 6.81753C112.43 6.81753 112.577 6.88277 112.887 7.14373C113.132 7.33945 113.36 7.45362 113.687 7.45362C114.258 7.45362 114.65 6.94801 114.65 6.21407C114.65 5.52905 114.258 5.07238 113.572 5.07238C112.495 5.07238 111.744 6.00204 111.026 7.16004V5.31702H107.695V5.31702ZM106.226 5.31702H103.989V9.5739C103.989 11.2212 103.467 12.0693 102.242 12.0693C101.214 12.0693 100.936 11.3354 100.936 10.0632V5.31702H98.6993V10.3242C98.6993 12.3303 99.189 13.6677 101.573 13.6677C102.52 13.6677 103.499 13.1947 104.054 12.2813H104.103V13.4393H106.226V5.31702V5.31702ZM96.0054 1.38634C95.9238 1.87564 95.8095 2.1366 95.532 2.1366C95.3524 2.1366 95.0748 2.03874 94.683 1.87564C93.9157 1.54944 93.4259 1.38634 92.5606 1.38634C91.5157 1.38634 90.6504 1.71254 89.9484 2.38124C89.2627 3.03364 88.9198 3.83282 88.9198 4.7788C88.9198 5.33333 89.0504 5.83894 89.2953 6.29562C89.5565 6.75229 89.9157 7.16004 90.3892 7.53517C90.8463 7.9103 91.63 8.35066 92.6912 8.87258C93.4585 9.26402 93.9973 9.55759 94.3075 9.80224C94.7973 10.1937 95.1891 10.683 95.1891 11.3517C95.1891 12.3792 94.3075 13.1131 93.0667 13.1131C92.2177 13.1131 91.4177 12.787 90.7157 12.1182C89.981 11.4495 89.5402 10.5688 89.2953 9.26402H88.9198V13.7166H89.279C89.4423 13.3578 89.7035 13.0316 90.128 13.0316C90.3076 13.0316 90.5361 13.0805 90.8137 13.1947C91.6463 13.5372 92.1851 13.7166 93.0994 13.7166C94.2912 13.7166 95.2707 13.3741 96.0381 12.6565C96.8054 11.9551 97.1972 11.107 97.1972 10.1121C97.1972 9.34557 96.9523 8.64424 96.4789 8.04077C95.9891 7.43731 95.0585 6.80122 93.6871 6.11621C92.6912 5.64322 92.0708 5.30071 91.7933 5.10499C91.1729 4.66463 90.8137 4.22426 90.8137 3.60449C90.8137 2.67482 91.6137 2.03874 92.7238 2.03874C93.4912 2.03874 94.2095 2.33231 94.8626 2.93578C95.483 3.53925 95.8911 4.32212 96.0544 5.31702H96.4626L96.3646 1.38634H96.0054V1.38634ZM88.1851 16V15.4292C85.9484 14.2222 85.5076 11.2375 85.5076 8.00815C85.5076 4.43629 85.9321 1.9735 88.1851 0.538226V0C85.0832 1.02752 83.0587 4.38736 83.0587 7.94292C83.0587 11.4985 85.0342 14.9562 88.1851 16M65.501 5.31702V5.69215C66.3336 5.75739 66.3663 6.13252 66.3663 7.07849V11.6779C66.3663 12.6075 66.3499 12.999 65.501 13.0805V13.4393H69.6968V13.0805C68.9132 13.0153 68.8152 12.6728 68.8152 11.6779V7.30683C69.2723 6.67074 69.6805 6.19776 70.3172 6.19776C70.6601 6.19776 70.9376 6.45872 71.0519 6.80122C71.1172 6.98063 71.1335 7.43731 71.1335 8.17125V11.6779C71.1335 12.4934 71.1335 13.0153 70.2682 13.0805V13.4393H74.4804V13.0805C73.6314 13.0479 73.5661 12.5749 73.5661 11.6779V7.30683C73.9906 6.71967 74.5131 6.21407 75.0845 6.21407C75.3947 6.21407 75.7049 6.36086 75.8192 6.80122C75.8845 7.01325 75.9008 7.45362 75.9008 8.17125V11.6779C75.9008 12.4934 75.8681 12.999 75.0192 13.0805V13.4393H79.215V13.0805C78.415 12.9827 78.3334 12.7217 78.3334 11.6779V8.33435C78.3334 7.46993 78.2681 6.83384 78.1375 6.44241C77.8436 5.57798 77.1579 5.07238 76.0967 5.07238C75.0355 5.07238 74.2192 5.65953 73.4355 6.55657C73.0437 5.54536 72.3743 5.07238 71.2968 5.07238C70.3009 5.07238 69.5825 5.54536 68.8152 6.37717V5.31702H65.501V5.31702ZM61.7296 13.4393H64.0316V2.21814H61.7296V13.4393ZM56.146 13.0642C55.0522 13.0642 54.7256 11.4659 54.7256 10.0958C54.7256 7.48624 54.9542 5.72477 56.1787 5.72477C57.4031 5.72477 57.5827 7.17635 57.5827 9.50867C57.5827 11.6453 57.3215 13.0642 56.146 13.0642M56.1623 13.7003C58.6113 13.7003 60.2439 11.841 60.2439 9.37819C60.2439 6.91539 58.546 5.08869 56.1623 5.08869C53.7787 5.08869 52.0645 7.02956 52.0645 9.42712C52.0645 11.8247 53.7134 13.7003 56.1623 13.7003M43.2319 2.23445V13.4393H45.4197V9.19878C45.4197 7.43731 45.9095 6.68705 47.1013 6.68705C48.0808 6.68705 48.4563 7.421 48.4563 8.85627V13.4393H50.6604V8.44852C50.6604 6.44241 50.0727 5.1213 47.8686 5.1213C46.9707 5.1213 46.0564 5.56167 45.4686 6.47503H45.4197V2.23445H43.2319ZM41.7952 12.7543C41.6483 12.6075 41.1748 12.0041 40.4075 10.8624L38.53 8.05709L39.3136 7.29052C40.3585 6.263 41.1259 5.79001 41.8605 5.67584V5.31702H38.1708V5.67584C38.7586 5.74108 39.1014 5.83894 39.1014 6.24669C39.1014 6.58919 38.6443 7.06218 38.0892 7.61672L36.3749 9.34557V1.6473H33.1423V2.02243C33.9423 2.12029 34.0239 2.39755 34.0239 3.42508V11.6779C34.0239 12.5586 34.0239 12.999 33.1423 13.0805V13.4393H37.1912V13.0805C36.4239 12.9664 36.3749 12.6565 36.3749 11.6779V10.1937L36.9463 9.62283L38.4973 12.0041C38.7259 12.3466 38.8565 12.5423 38.8565 12.738C38.8565 12.9501 38.6116 13.0805 38.3504 13.0805V13.4393H42.4973V13.0805C42.236 13.0642 41.9911 12.9501 41.7952 12.7543M30.3505 8.18756H32.5546C32.4076 6.11621 30.6444 5.08869 28.7179 5.08869C26.0567 5.08869 24.5547 6.96432 24.5547 9.52497C24.5547 12.0856 26.2037 13.7166 28.6689 13.7166C30.824 13.7166 32.3097 12.5097 32.6035 10.3568H30.4322C30.2689 11.4495 29.7138 12.1835 28.6526 12.1835C27.2485 12.1835 26.8077 10.683 26.8077 9.44342C26.8077 8.20387 27.2649 6.62181 28.7016 6.62181C29.6485 6.62181 30.2036 7.16004 30.3505 8.18756M19.2487 13.0642C18.1548 13.0642 17.8283 11.4659 17.8283 10.0958C17.8283 7.48624 18.0568 5.72477 19.2813 5.72477C20.5058 5.72477 20.6854 7.17635 20.6854 9.50867C20.6854 11.6453 20.4242 13.0642 19.2487 13.0642M19.265 13.7003C21.7139 13.7003 23.3466 11.841 23.3466 9.37819C23.3466 6.91539 21.6486 5.08869 19.265 5.08869C16.8814 5.08869 15.1671 7.02956 15.1671 9.42712C15.1671 11.8247 16.8161 13.7003 19.265 13.7003ZM12.5386 2.87054H10.3345V5.31702H8.97944V6.78491H10.3345V11.6126C10.3345 13.2273 11.4937 13.5372 12.8651 13.5372C13.3059 13.5372 13.812 13.5046 14.1712 13.4393V11.8084C13.9263 11.8573 13.7141 11.8736 13.4855 11.8736C12.7182 11.8736 12.5386 11.6942 12.5386 10.9276V6.78491H14.1712V5.31702H12.5386V2.87054V2.87054ZM7.0856 1.38634C7.00397 1.87564 6.88968 2.1366 6.61214 2.1366C6.43255 2.1366 6.155 2.03874 5.76317 1.87564C4.99584 1.54944 4.50605 1.38634 3.64076 1.38634C2.59588 1.38634 1.73058 1.71254 1.02855 2.38124C0.342851 3.03364 0 3.83282 0 4.7788C0 5.33333 0.13061 5.83894 0.375504 6.29562C0.636724 6.75229 0.995902 7.16004 1.46936 7.53517C1.9265 7.9103 2.71016 8.35066 3.77137 8.87258C4.5387 9.26402 5.07747 9.55759 5.38767 9.80224C5.87745 10.1937 6.26928 10.683 6.26928 11.3517C6.26928 12.3792 5.38767 13.1131 4.14687 13.1131C3.29791 13.1131 2.49792 12.787 1.79589 12.1182C1.06121 11.4495 0.620398 10.5688 0.375504 9.26402H0V13.7166H0.359178C0.52244 13.3578 0.783661 13.0316 1.20814 13.0316C1.38773 13.0316 1.6163 13.0805 1.89385 13.1947C2.72649 13.5372 3.26525 13.7166 4.17952 13.7166C5.37134 13.7166 6.35092 13.3741 7.11825 12.6565C7.88559 11.9551 8.27742 11.107 8.27742 10.1121C8.27742 9.34557 8.03252 8.64424 7.55906 8.04077C7.06927 7.43731 6.13868 6.80122 4.76727 6.11621C3.77137 5.64322 3.15097 5.30071 2.87342 5.10499C2.25302 4.66463 1.89385 4.22426 1.89385 3.60449C1.89385 2.67482 2.69383 2.03874 3.80402 2.03874C4.57135 2.03874 5.28971 2.33231 5.94276 2.93578C6.56316 3.53925 6.97131 4.32212 7.13458 5.31702H7.54273L7.44478 1.38634H7.0856V1.38634Z" fill="#ED1C24"/>
</svg>
