<svg width="16" height="16" viewBox="0 0 16 16" fill="none" xmlns="http://www.w3.org/2000/svg">
<g clip-path="url(#clip0_239_10188)">
<circle cx="8" cy="8" r="7.5" stroke="black"/>
<path d="M11.5 8C11.5 10.1483 11.0635 12.0686 10.3812 13.4332C9.68393 14.8278 8.81316 15.5 8 15.5C7.18684 15.5 6.31607 14.8278 5.61879 13.4332C4.93646 12.0686 4.5 10.1483 4.5 8C4.5 5.85165 4.93646 3.93141 5.61879 2.56675C6.31607 1.17219 7.18684 0.5 8 0.5C8.81316 0.5 9.68393 1.17219 10.3812 2.56675C11.0635 3.93141 11.5 5.85165 11.5 8Z" stroke="black"/>
<line x1="0.317383" y1="7.83398" x2="15.6807" y2="7.83398" stroke="black"/>
</g>
<defs>
<clipPath id="clip0_239_10188">
<rect width="16" height="16" fill="white"/>
</clipPath>
</defs>
</svg>
